<?xml version="1.0" encoding="UTF-8" standalone="no"?>
<svg
   xmlns:dc="http://purl.org/dc/elements/1.1/"
   xmlns:cc="http://creativecommons.org/ns#"
   xmlns:rdf="http://www.w3.org/1999/02/22-rdf-syntax-ns#"
   xmlns:svg="http://www.w3.org/2000/svg"
   xmlns="http://www.w3.org/2000/svg"
   xmlns:sodipodi="http://sodipodi.sourceforge.net/DTD/sodipodi-0.dtd"
   xmlns:inkscape="http://www.inkscape.org/namespaces/inkscape"
   width="210mm"
   height="297mm"
   viewBox="0 0 210 297"
   version="1.1"
   id="svg8"
   inkscape:version="1.0.1 (c497b03c, 2020-09-10)"
   sodipodi:docname="2.svg">
  <defs
     id="defs2">
    <marker
       style="overflow:visible;"
       id="marker1648"
       refX="0.0"
       refY="0.0"
       orient="auto"
       inkscape:stockid="Arrow1Mend"
       inkscape:isstock="true">
      <path
         transform="scale(0.4) rotate(180) translate(10,0)"
         style="fill-rule:evenodd;stroke:#ec0000;stroke-width:1pt;stroke-opacity:1;fill:#ec0000;fill-opacity:1"
         d="M 0.0,0.0 L 5.0,-5.0 L -12.5,0.0 L 5.0,5.0 L 0.0,0.0 z "
         id="path1646" />
    </marker>
    <marker
       style="overflow:visible;"
       id="marker1578"
       refX="0.0"
       refY="0.0"
       orient="auto"
       inkscape:stockid="Arrow1Mend"
       inkscape:isstock="true"
       inkscape:collect="always">
      <path
         transform="scale(0.4) rotate(180) translate(10,0)"
         style="fill-rule:evenodd;stroke:#ec0000;stroke-width:1pt;stroke-opacity:1;fill:#ec0000;fill-opacity:1"
         d="M 0.0,0.0 L 5.0,-5.0 L -12.5,0.0 L 5.0,5.0 L 0.0,0.0 z "
         id="path1576" />
    </marker>
    <marker
       style="overflow:visible;"
       id="Arrow1Mend"
       refX="0.0"
       refY="0.0"
       orient="auto"
       inkscape:stockid="Arrow1Mend"
       inkscape:isstock="true"
       inkscape:collect="always">
      <path
         transform="scale(0.4) rotate(180) translate(10,0)"
         style="fill-rule:evenodd;stroke:#ec0000;stroke-width:1pt;stroke-opacity:1;fill:#ec0000;fill-opacity:1"
         d="M 0.0,0.0 L 5.0,-5.0 L -12.5,0.0 L 5.0,5.0 L 0.0,0.0 z "
         id="path897" />
    </marker>
    <marker
       style="overflow:visible"
       id="marker1252"
       refX="0.0"
       refY="0.0"
       orient="auto"
       inkscape:stockid="Arrow1Mstart"
       inkscape:isstock="true">
      <path
         transform="scale(0.4) translate(10,0)"
         style="fill-rule:evenodd;stroke:#117dd0;stroke-width:1pt;stroke-opacity:1;fill:#117dd0;fill-opacity:1"
         d="M 0.0,0.0 L 5.0,-5.0 L -12.5,0.0 L 5.0,5.0 L 0.0,0.0 z "
         id="path1250" />
    </marker>
    <marker
       style="overflow:visible"
       id="marker1242"
       refX="0.0"
       refY="0.0"
       orient="auto"
       inkscape:stockid="Arrow1Mstart"
       inkscape:isstock="true">
      <path
         transform="scale(0.4) translate(10,0)"
         style="fill-rule:evenodd;stroke:#117dd0;stroke-width:1pt;stroke-opacity:1;fill:#117dd0;fill-opacity:1"
         d="M 0.0,0.0 L 5.0,-5.0 L -12.5,0.0 L 5.0,5.0 L 0.0,0.0 z "
         id="path1240" />
    </marker>
    <marker
       style="overflow:visible"
       id="marker1200"
       refX="0.0"
       refY="0.0"
       orient="auto"
       inkscape:stockid="Arrow1Mstart"
       inkscape:isstock="true">
      <path
         transform="scale(0.4) translate(10,0)"
         style="fill-rule:evenodd;stroke:#117dd0;stroke-width:1pt;stroke-opacity:1;fill:#117dd0;fill-opacity:1"
         d="M 0.0,0.0 L 5.0,-5.0 L -12.5,0.0 L 5.0,5.0 L 0.0,0.0 z "
         id="path1198" />
    </marker>
    <marker
       style="overflow:visible"
       id="marker1242-7"
       refX="0"
       refY="0"
       orient="auto"
       inkscape:stockid="Arrow1Mstart"
       inkscape:isstock="true">
      <path
         transform="matrix(0.4,0,0,0.4,4,0)"
         style="fill:#000000;fill-opacity:1;fill-rule:evenodd;stroke:#000000;stroke-width:1pt;stroke-opacity:1"
         d="M 0,0 5,-5 -12.5,0 5,5 Z"
         id="path1240-4" />
    </marker>
    <marker
       style="overflow:visible"
       id="marker1252-1"
       refX="0"
       refY="0"
       orient="auto"
       inkscape:stockid="Arrow1Mstart"
       inkscape:isstock="true">
      <path
         transform="matrix(0.4,0,0,0.4,4,0)"
         style="fill:#000000;fill-opacity:1;fill-rule:evenodd;stroke:#000000;stroke-width:1pt;stroke-opacity:1"
         d="M 0,0 5,-5 -12.5,0 5,5 Z"
         id="path1250-7" />
    </marker>
    <marker
       style="overflow:visible"
       id="marker1200-6"
       refX="0"
       refY="0"
       orient="auto"
       inkscape:stockid="Arrow1Mstart"
       inkscape:isstock="true">
      <path
         transform="matrix(0.4,0,0,0.4,4,0)"
         style="fill:#000000;fill-opacity:1;fill-rule:evenodd;stroke:#000000;stroke-width:1pt;stroke-opacity:1"
         d="M 0,0 5,-5 -12.5,0 5,5 Z"
         id="path1198-0" />
    </marker>
  </defs>
  <sodipodi:namedview
     id="base"
     pagecolor="#ffffff"
     bordercolor="#666666"
     borderopacity="1.0"
     inkscape:pageopacity="0.0"
     inkscape:pageshadow="2"
     inkscape:zoom="1.0532621"
     inkscape:cx="511.70771"
     inkscape:cy="540.55189"
     inkscape:document-units="mm"
     inkscape:current-layer="layer1"
     inkscape:document-rotation="0"
     showgrid="false"
     inkscape:window-width="1252"
     inkscape:window-height="943"
     inkscape:window-x="0"
     inkscape:window-y="25"
     inkscape:window-maximized="0" />
  <metadata
     id="metadata5">
    <rdf:RDF>
      <cc:Work
         rdf:about="">
        <dc:format>image/svg+xml</dc:format>
        <dc:type
           rdf:resource="http://purl.org/dc/dcmitype/StillImage" />
        <dc:title></dc:title>
      </cc:Work>
    </rdf:RDF>
  </metadata>
  <g
     inkscape:label="Layer 1"
     inkscape:groupmode="layer"
     id="layer1">
    <path
       style="fill:none;stroke:#000000;stroke-width:0.264583px;stroke-linecap:butt;stroke-linejoin:miter;stroke-opacity:1"
       d="M 52.916666,176.89286 H 92.604163 132.29166"
       id="path833"
       sodipodi:nodetypes="ccc" />
    <path
       style="fill:none;stroke:#000000;stroke-width:0.264583px;stroke-linecap:butt;stroke-linejoin:miter;stroke-opacity:1"
       d="m 52.916666,97.51786 v 39.6875 39.6875"
       id="path833-9"
       sodipodi:nodetypes="ccc" />
    <path
       style="fill:none;stroke:#000000;stroke-width:0.264583px;stroke-linecap:butt;stroke-linejoin:miter;stroke-opacity:1"
       d="m 132.29166,97.517864 v 39.687496 39.6875"
       id="path833-9-1"
       sodipodi:nodetypes="ccc" />
    <path
       style="fill:none;stroke:#000000;stroke-width:0.264583px;stroke-linecap:butt;stroke-linejoin:miter;stroke-opacity:1"
       d="M 52.916666,97.517864 H 92.604163 132.29166"
       id="path833-7"
       sodipodi:nodetypes="ccc" />
    <circle
       style="fill:#000000;fill-opacity:1;fill-rule:evenodd;stroke-width:0.132281"
       id="path884"
       cx="92.903458"
       cy="135.13049"
       r="0.75878072" />
    <path
       style="fill:none;stroke:#117dd0;stroke-width:0.4;stroke-linecap:butt;stroke-linejoin:miter;stroke-opacity:1;stroke-miterlimit:4;stroke-dasharray:none;marker-mid:url(#marker1242)"
       d="m 92.723744,135.22213 c 0,0 2.20771,-4.5189 2.914868,-9.96918 0.707157,-5.45029 -0.08624,-11.83194 -6.088447,-15.55745 -6.002207,-3.7255 -15.040012,-5.72624 -22.577266,-6.7956 -7.537254,-1.06936 -13.573956,-1.20734 -13.573956,-1.20734"
       id="path886"
       sodipodi:nodetypes="csssc" />
    <path
       style="fill:none;stroke:#117dd0;stroke-width:0.4;stroke-linecap:butt;stroke-linejoin:miter;stroke-opacity:1;marker-mid:url(#marker1252);stroke-miterlimit:4;stroke-dasharray:none"
       d="m 92.723744,135.22213 c 0,0 2.380187,2.03523 6.312668,4.10495 3.932478,2.06973 9.417258,4.17395 15.626438,4.31193 6.20918,0.13798 10.62459,-6.86459 13.48771,-13.90166 2.86312,-7.03707 4.17395,-14.10863 4.17395,-14.10863"
       id="path1164"
       sodipodi:nodetypes="csssc" />
    <path
       style="fill:none;stroke:#117dd0;stroke-width:0.4;stroke-linecap:butt;stroke-linejoin:miter;stroke-opacity:1;marker-mid:url(#marker1200);stroke-miterlimit:4;stroke-dasharray:none"
       d="m 92.723744,135.22213 c 0,0 -7.520006,0.34495 -14.419094,2.98385 -6.899088,2.6389 -13.177259,7.57175 -10.693587,16.74754 1.722974,6.36543 4.3922,10.93797 7.143947,14.19555 5.181551,6.13402 10.655701,7.60557 10.655701,7.60557"
       id="path1196"
       sodipodi:nodetypes="csssc" />
    <text
       xml:space="preserve"
       style="font-size:10.5833px;line-height:1.25;font-family:sans-serif;letter-spacing:0px;stroke-width:0.264583"
       x="85.409256"
       y="187.90038"
       id="text1238"><tspan
         sodipodi:role="line"
         id="tspan1236"
         x="85.409256"
         y="187.90038"
         style="stroke-width:0.264583">$\alpha &lt; 0$</tspan></text>
    <path
       style="fill:none;stroke:#000000;stroke-width:0.264583px;stroke-linecap:butt;stroke-linejoin:miter;stroke-opacity:1"
       d="m 163.43217,176.37147 h 39.6875 39.6875"
       id="path833-2"
       sodipodi:nodetypes="ccc" />
    <path
       style="fill:none;stroke:#000000;stroke-width:0.264583px;stroke-linecap:butt;stroke-linejoin:miter;stroke-opacity:1"
       d="m 163.43217,96.996468 v 39.687502 39.6875"
       id="path833-9-10"
       sodipodi:nodetypes="ccc" />
    <path
       style="fill:none;stroke:#000000;stroke-width:0.264583px;stroke-linecap:butt;stroke-linejoin:miter;stroke-opacity:1"
       d="m 242.80717,96.996468 v 39.687502 39.6875"
       id="path833-9-1-8"
       sodipodi:nodetypes="ccc" />
    <path
       style="fill:none;stroke:#000000;stroke-width:0.264583px;stroke-linecap:butt;stroke-linejoin:miter;stroke-opacity:1"
       d="m 163.43217,96.996468 h 39.6875 39.6875"
       id="path833-7-7"
       sodipodi:nodetypes="ccc" />
    <circle
       style="fill:#000000;fill-opacity:1;fill-rule:evenodd;stroke-width:0.132281"
       id="path884-9"
       cx="203.41896"
       cy="134.6091"
       r="0.75878072" />
    <path
       style="fill:none;stroke:#ec0000;stroke-width:0.4;stroke-linecap:butt;stroke-linejoin:miter;stroke-miterlimit:4;stroke-dasharray:none;stroke-opacity:1;marker-mid:url(#marker1578)"
       d="m 203.23925,134.70074 c 0,0 2.20771,-4.5189 2.91487,-9.96918 0.70716,-5.45029 -0.0862,-11.83194 -6.08845,-15.55745 -6.00221,-3.7255 -15.04001,-5.72624 -22.57726,-6.7956 -7.53726,-1.06936 -13.57396,-1.20734 -13.57396,-1.20734"
       id="path886-4"
       sodipodi:nodetypes="csssc" />
    <path
       style="fill:none;stroke:#ec0000;stroke-width:0.4;stroke-linecap:butt;stroke-linejoin:miter;stroke-opacity:1;marker-mid:url(#Arrow1Mend);stroke-miterlimit:4;stroke-dasharray:none"
       d="m 203.23925,134.70074 c 0,0 2.38019,2.03523 6.31267,4.10495 3.93248,2.06973 9.41726,4.17395 15.62644,4.31193 6.20918,0.13798 10.62459,-6.86459 13.48771,-13.90166 2.86312,-7.03707 4.17395,-14.10863 4.17395,-14.10863"
       id="path1164-7"
       sodipodi:nodetypes="csssc" />
    <path
       style="fill:none;stroke:#ec0000;stroke-width:0.4;stroke-linecap:butt;stroke-linejoin:miter;stroke-opacity:1;marker-mid:url(#marker1648);stroke-miterlimit:4;stroke-dasharray:none"
       d="m 203.23925,134.70074 c 0,0 -7.52,0.34495 -14.41909,2.98385 -6.89909,2.6389 -13.17726,7.57175 -10.69359,16.74754 1.72297,6.36543 4.3922,10.93797 7.14395,14.19555 5.18155,6.13402 10.6557,7.60557 10.6557,7.60557"
       id="path1196-2"
       sodipodi:nodetypes="csssc" />
    <text
       xml:space="preserve"
       style="font-size:10.5833px;line-height:1.25;font-family:sans-serif;letter-spacing:0px;stroke-width:0.264583"
       x="195.92476"
       y="187.379"
       id="text1238-9"><tspan
         sodipodi:role="line"
         id="tspan1236-7"
         x="195.92476"
         y="187.379"
         style="stroke-width:0.264583">$\alpha &gt; 0$</tspan></text>
  </g>
</svg>
